<?xml version="1.0" encoding="UTF-8"?> <svg xmlns="http://www.w3.org/2000/svg" xmlns:i="http://ns.adobe.com/AdobeIllustrator/10.0/" id="Calque_1" version="1.1" viewBox="0 0 990.53 287.78"><defs><style> .st0 { fill: #1d1d1b; } </style></defs><g><path class="st0" d="M390.99,197.37c.47.55.71,1.14.71,1.77,0,.87-.34,1.61-1,2.24-.67.63-1.44.94-2.3.94h-.12c-1.26,0-2.44-.71-3.54-2.12l-77.04-91.55-39.17,41.65v48.25c0,2.52-1.02,3.78-3.07,3.78h-.12c-2.12,0-3.19-1.26-3.19-3.78V37.87c0-2.52,1.06-3.77,3.19-3.77h.12c2.04,0,3.07,1.26,3.07,3.77v103.7l98.27-105.35c1.42-1.49,2.6-2.24,3.54-2.24h.24c.86,0,1.61.34,2.24,1,.63.67.94,1.44.94,2.3s-.28,1.57-.83,2.12l-60.76,64.41,78.81,93.55Z"></path><path class="st0" d="M425.56,33.97h109.48c2.52,0,3.77,1.06,3.77,3.19v.12c0,1.1-.34,1.93-1,2.48-.67.55-1.59.83-2.77.83h-106.29v71.26h87.06c1.18,0,2.14.26,2.89.77.75.51,1.12,1.32,1.12,2.42v.12c0,1.1-.38,1.91-1.12,2.42-.75.51-1.71.77-2.89.77h-87.06v77.39h108.66c2.52,0,3.77,1.06,3.77,3.19v.12c0,1.1-.34,1.93-1,2.48-.67.55-1.59.83-2.77.83h-111.84c-2.12,0-3.19-1.1-3.19-3.3V37.16c0-2.12,1.06-3.19,3.19-3.19Z"></path><path class="st0" d="M558.51,33.97h120.81c2.04,0,3.07,1.06,3.07,3.19v.12c0,2.2-1.02,3.3-3.07,3.3h-56.98v158.44c0,2.2-1.02,3.3-3.07,3.3h-.12c-2.2,0-3.3-1.1-3.3-3.3V40.58h-57.34c-2.2,0-3.3-1.1-3.3-3.3v-.12c0-2.12,1.1-3.19,3.3-3.19Z"></path><path class="st0" d="M821.95,178.14c.79,0,1.45.28,2.01.83l.24.24c.47.47.71,1.1.71,1.89,0,1.26-.51,2.28-1.53,3.07-7.47,6.37-15.73,11.31-24.78,14.81-9.04,3.5-18.6,5.25-28.67,5.25-15.73,0-30.24-3.83-43.53-11.5-13.29-7.67-23.85-18.09-31.68-31.26-7.83-13.17-11.74-27.59-11.74-43.24s3.89-30.16,11.68-43.3c7.79-13.13,18.34-23.54,31.68-31.2,13.33-7.67,27.86-11.5,43.59-11.5,10.07,0,19.6,1.71,28.61,5.13,9,3.42,17.32,8.28,24.95,14.57,1.26,1.18,1.89,2.24,1.89,3.19,0,.24-.06.47-.18.71-.12.24-.18.39-.18.47l-.24.47-.12.12c-.71.71-1.58,1.06-2.6,1.06-.87,0-1.73-.31-2.6-.94-15.49-11.95-32.01-17.93-49.55-17.93-14.55,0-27.98,3.5-40.29,10.5-12.31,7-22.04,16.56-29.2,28.67-7.16,12.11-10.74,25.44-10.74,39.99s3.6,27.86,10.79,39.93c7.2,12.07,16.93,21.63,29.2,28.67,12.27,7.04,25.68,10.56,40.23,10.56,17.54,0,34.02-6.06,49.43-18.17.86-.71,1.73-1.06,2.6-1.06Z"></path><path class="st0" d="M862.29,121.75v76.8c0,2.52-1.02,3.78-3.07,3.78h-.12c-2.12,0-3.19-1.26-3.19-3.78V37.75c0-2.52,1.06-3.77,3.19-3.77h.12c2.04,0,3.07,1.26,3.07,3.77v77.63h121.87V37.75c0-2.52,1.06-3.77,3.19-3.77h.12c2.04,0,3.07,1.26,3.07,3.77v160.8c0,2.52-1.02,3.78-3.07,3.78h-.12c-2.12,0-3.19-1.26-3.19-3.78v-76.8h-121.87Z"></path></g><path class="st0" d="M156.04,80.47c-.95,0-1.83-.24-2.63-.71-.81-.47-1.72-1.11-2.74-1.92l-.22-.11c-1.39-1.39-3.18-2.93-5.38-4.61-2.2-1.68-4.65-3.26-7.35-4.72-2.71-1.46-5.62-2.71-8.73-3.73-3.11-1.02-6.28-1.54-9.49-1.54-4.1,0-7.72.46-10.87,1.37-3.15.92-5.78,2.16-7.9,3.73-2.12,1.57-3.73,3.42-4.83,5.54-1.1,2.12-1.65,4.39-1.65,6.81,0,2.63.82,4.94,2.47,6.91,1.65,1.98,3.88,3.73,6.7,5.27,2.82,1.54,6.05,2.95,9.71,4.23,3.66,1.28,7.5,2.54,11.52,3.79,4.61,1.39,9.18,2.89,13.72,4.5,4.54,1.61,8.87,3.42,13.01,5.43,4.13,2.01,7.99,4.24,11.58,6.7,3.58,2.45,6.68,5.27,9.27,8.45,2.6,3.18,4.65,6.73,6.15,10.65,1.5,3.92,2.25,8.32,2.25,13.23,0,7.98-1.61,15.18-4.83,21.62-3.22,6.44-7.67,11.95-13.34,16.52-5.67,4.57-12.33,8.09-19.98,10.54-7.65,2.45-15.86,3.68-24.64,3.68-5.64,0-11.23-.66-16.79-1.98-5.56-1.32-10.9-3.18-16.03-5.6-5.12-2.41-9.97-5.32-14.54-8.73-4.57-3.4-8.65-7.22-12.24-11.47v.11l-.22-.44c-1.61-1.83-2.41-3.51-2.41-5.05,0-.8.22-1.57.66-2.31.44-.73,1.1-1.54,1.98-2.41l3.62-3.62c1.1-.95,2.27-2.01,3.51-3.18,1.24-1.17,2.49-2.23,3.73-3.18,1.24-.95,2.4-1.76,3.46-2.41,1.06-.66,1.92-.99,2.58-.99,1.02,0,1.98.33,2.85.99.88.66,1.61,1.28,2.2,1.87l.44.44h-.11c2.56,2.41,5.43,4.72,8.62,6.91,3.18,2.2,6.46,4.15,9.82,5.87,3.36,1.72,6.71,3.07,10.04,4.06,3.33.99,6.46,1.48,9.38,1.48,4.02,0,7.79-.51,11.31-1.54,3.51-1.02,6.55-2.47,9.11-4.33,2.56-1.87,4.57-4.12,6.04-6.75,1.46-2.63,2.19-5.56,2.19-8.78s-.95-5.98-2.85-8.29c-1.9-2.31-4.39-4.32-7.46-6.04-3.07-1.72-6.53-3.2-10.37-4.44-3.84-1.24-7.7-2.41-11.58-3.51-8.93-2.71-16.74-5.63-23.43-8.78-6.7-3.15-12.28-6.68-16.74-10.59-4.46-3.91-7.81-8.3-10.04-13.17-2.23-4.87-3.35-10.33-3.35-16.41,0-6.81,1.37-13.01,4.12-18.6,2.74-5.6,6.64-10.39,11.69-14.38,5.05-3.99,11.12-7.1,18.22-9.33,7.1-2.23,15.04-3.35,23.82-3.35,6.66,0,13.43,1.04,20.31,3.13,6.88,2.09,13.24,4.96,19.1,8.62,1.76,1.1,3.55,2.34,5.38,3.73,1.83,1.39,3.51,2.8,5.05,4.23,1.54,1.43,2.8,2.82,3.79,4.17.99,1.35,1.48,2.51,1.48,3.46,0,.88-.22,1.78-.66,2.69-.44.92-.99,1.74-1.65,2.47l-3.29,3.51v-.11c-1.1,1.17-2.23,2.38-3.4,3.62-1.17,1.25-2.34,2.36-3.51,3.35-1.17.99-2.23,1.81-3.18,2.47-.95.66-1.76.99-2.41.99Z"></path><path class="st0" d="M118.12,236.24C52.99,236.24,0,183.25,0,118.12S52.99,0,118.12,0s118.12,52.99,118.12,118.12-52.99,118.12-118.12,118.12ZM118.12,19.68c-54.28,0-98.44,44.16-98.44,98.44s44.16,98.44,98.44,98.44,98.44-44.16,98.44-98.44S172.4,19.68,118.12,19.68Z"></path><g><path class="st0" d="M616.85,234.14h15.99c5.09,0,9.74,1.19,13.95,3.58,4.2,2.39,7.52,5.61,9.94,9.66,2.42,4.06,3.64,8.48,3.64,13.28s-1.21,9.18-3.64,13.22c-2.42,4.04-5.74,7.25-9.94,9.63-4.2,2.37-8.85,3.56-13.95,3.56h-16.1c-.59-.05-.89-.4-.89-1.04v-50.89c0-.67.33-1,1-1ZM654.9,248.37c-2.25-3.75-5.33-6.71-9.24-8.88-3.91-2.18-8.23-3.26-12.98-3.26h-14.84v48.78h14.84c4.75,0,9.08-1.08,12.98-3.25,3.91-2.16,6.99-5.11,9.24-8.83,2.25-3.72,3.38-7.81,3.38-12.26s-1.13-8.55-3.38-12.3Z"></path><path class="st0" d="M694.99,234.14h34.42c.79,0,1.19.33,1.19,1v.04c0,.35-.1.61-.31.78-.21.17-.5.26-.87.26h-33.42v22.4h27.37c.37,0,.67.08.91.24.24.16.35.41.35.76v.04c0,.35-.12.6-.35.76-.24.16-.54.24-.91.24h-27.37v24.33h34.16c.79,0,1.19.33,1.19,1v.04c0,.35-.1.61-.32.78-.21.17-.5.26-.87.26h-35.16c-.67,0-1-.35-1-1.04v-50.89c0-.67.33-1,1-1Z"></path><path class="st0" d="M759.83,278.69c0-.27.1-.51.3-.7l.08-.07c.17-.1.36-.15.56-.15.35,0,.72.24,1.11.7,1.93,2.4,4.25,4.21,6.95,5.43,2.71,1.22,6.03,1.84,9.96,1.84,3.34,0,6.32-.45,8.96-1.34,2.63-.89,4.73-2.32,6.31-4.28,1.57-1.97,2.35-4.48,2.35-7.55,0-2.65-.91-4.75-2.73-6.32-1.82-1.57-3.86-2.7-6.14-3.39-2.28-.69-5.17-1.38-8.68-2.08-4.08-.74-7.42-1.68-10.03-2.82s-4.57-2.57-5.88-4.28c-1.31-1.72-1.97-3.81-1.97-6.29,0-2.92.76-5.42,2.28-7.49,1.52-2.08,3.68-3.65,6.49-4.73,2.81-1.08,6.13-1.61,9.96-1.61,3.39,0,6.32.46,8.81,1.37,2.49.91,4.87,2.47,7.14,4.67.22.22.33.49.33.82,0,.25-.07.47-.22.67l-.07.07c-.2.12-.41.19-.63.19-.2,0-.4-.06-.59-.19-.2-.12-.43-.31-.7-.56-1.48-1.26-2.83-2.24-4.04-2.93-1.21-.69-2.6-1.21-4.17-1.54-1.57-.33-3.52-.5-5.84-.5-2.89,0-5.6.38-8.1,1.15-2.51.77-4.57,2.02-6.18,3.76-1.61,1.74-2.41,4.02-2.41,6.84,0,3.24,1.48,5.73,4.43,7.47,2.95,1.74,6.92,3.09,11.89,4.02,3.96.79,7.18,1.59,9.68,2.39s4.69,2.11,6.58,3.93c1.89,1.82,2.84,4.27,2.84,7.36,0,3.36-.85,6.18-2.56,8.46-1.71,2.28-4.04,3.97-7.01,5.08-2.97,1.11-6.33,1.67-10.09,1.67-3.96,0-7.42-.62-10.4-1.87-2.98-1.25-5.67-3.32-8.07-6.21-.32-.37-.48-.7-.48-1Z"></path><path class="st0" d="M832.19,234.48c.17-.22.42-.33.74-.33h.04c.64,0,.96.4.96,1.19v50.52c0,.82-.32,1.22-.96,1.22h-.04c-.35,0-.6-.11-.76-.33-.16-.22-.24-.52-.24-.89v-50.52c0-.35.09-.63.26-.85Z"></path><path class="st0" d="M904.33,284.16c2.65-.98,5.09-2.29,7.34-3.95v-15.54c0-.37.09-.66.26-.87.17-.21.43-.32.78-.32.67,0,1,.4,1,1.19v15.73c0,.49-.16.89-.48,1.19-2.28,1.88-4.91,3.36-7.9,4.45-2.99,1.09-6.04,1.63-9.16,1.63-4.92,0-9.47-1.21-13.65-3.62-4.18-2.41-7.49-5.68-9.92-9.81-2.44-4.13-3.65-8.65-3.65-13.58s1.22-9.49,3.65-13.63c2.44-4.14,5.74-7.42,9.92-9.83,4.18-2.41,8.73-3.62,13.65-3.62,3.16,0,6.18.54,9.03,1.61,2.85,1.08,5.47,2.59,7.84,4.54.37.35.56.67.56.96,0,.25-.06.43-.19.56l-.04.04c-.22.22-.48.33-.78.33-.27,0-.54-.1-.82-.3-4.85-3.71-10.05-5.56-15.61-5.56-4.57,0-8.79,1.1-12.63,3.3-3.85,2.2-6.89,5.21-9.12,9.01-2.24,3.81-3.36,8-3.36,12.57s1.12,8.73,3.36,12.56c2.24,3.82,5.28,6.84,9.12,9.07,3.85,2.23,8.06,3.34,12.63,3.34,2.79,0,5.51-.49,8.16-1.46Z"></path><path class="st0" d="M949.17,285.85c0,.82-.32,1.22-.96,1.22h-.04c-.35,0-.6-.11-.76-.33-.16-.22-.24-.52-.24-.89v-50.7c0-.25.08-.47.24-.67.16-.2.4-.31.72-.33h.19c.35,0,.72.24,1.11.71l39.06,48.52v-48.22c0-.67.35-1,1.04-1h.04c.64,0,.96.33.96,1v50.7c0,.82-.32,1.22-.96,1.22h-.22c-.32,0-.68-.22-1.08-.67l-39.1-48.63v48.07Z"></path></g><metadata></metadata></svg> 