<?xml version="1.0" encoding="utf-8"?>
<svg xmlns="http://www.w3.org/2000/svg" viewBox="0 0 236.24 236.24" width="236.24px" height="236.24px">
  <defs>
    <style> .st0 { fill: #1d1d1b; } </style>
  </defs>
  <path class="st0" d="M156.04,80.47c-.95,0-1.83-.24-2.63-.71-.81-.47-1.72-1.11-2.74-1.92l-.22-.11c-1.39-1.39-3.18-2.93-5.38-4.61-2.2-1.68-4.65-3.26-7.35-4.72-2.71-1.46-5.62-2.71-8.73-3.73-3.11-1.02-6.28-1.54-9.49-1.54-4.1,0-7.72.46-10.87,1.37-3.15.92-5.78,2.16-7.9,3.73-2.12,1.57-3.73,3.42-4.83,5.54-1.1,2.12-1.65,4.39-1.65,6.81,0,2.63.82,4.94,2.47,6.91,1.65,1.98,3.88,3.73,6.7,5.27,2.82,1.54,6.05,2.95,9.71,4.23,3.66,1.28,7.5,2.54,11.52,3.79,4.61,1.39,9.18,2.89,13.72,4.5,4.54,1.61,8.87,3.42,13.01,5.43,4.13,2.01,7.99,4.24,11.58,6.7,3.58,2.45,6.68,5.27,9.27,8.45,2.6,3.18,4.65,6.73,6.15,10.65,1.5,3.92,2.25,8.32,2.25,13.23,0,7.98-1.61,15.18-4.83,21.62-3.22,6.44-7.67,11.95-13.34,16.52-5.67,4.57-12.33,8.09-19.98,10.54-7.65,2.45-15.86,3.68-24.64,3.68-5.64,0-11.23-.66-16.79-1.98-5.56-1.32-10.9-3.18-16.03-5.6-5.12-2.41-9.97-5.32-14.54-8.73-4.57-3.4-8.65-7.22-12.24-11.47v.11l-.22-.44c-1.61-1.83-2.41-3.51-2.41-5.05,0-.8.22-1.57.66-2.31.44-.73,1.1-1.54,1.98-2.41l3.62-3.62c1.1-.95,2.27-2.01,3.51-3.18,1.24-1.17,2.49-2.23,3.73-3.18,1.24-.95,2.4-1.76,3.46-2.41,1.06-.66,1.92-.99,2.58-.99,1.02,0,1.98.33,2.85.99.88.66,1.61,1.28,2.2,1.87l.44.44h-.11c2.56,2.41,5.43,4.72,8.62,6.91,3.18,2.2,6.46,4.15,9.82,5.87,3.36,1.72,6.71,3.07,10.04,4.06,3.33.99,6.46,1.48,9.38,1.48,4.02,0,7.79-.51,11.31-1.54,3.51-1.02,6.55-2.47,9.11-4.33,2.56-1.87,4.57-4.12,6.04-6.75,1.46-2.63,2.19-5.56,2.19-8.78s-.95-5.98-2.85-8.29c-1.9-2.31-4.39-4.32-7.46-6.04-3.07-1.72-6.53-3.2-10.37-4.44-3.84-1.24-7.7-2.41-11.58-3.51-8.93-2.71-16.74-5.63-23.43-8.78-6.7-3.15-12.28-6.68-16.74-10.59-4.46-3.91-7.81-8.3-10.04-13.17-2.23-4.87-3.35-10.33-3.35-16.41,0-6.81,1.37-13.01,4.12-18.6,2.74-5.6,6.64-10.39,11.69-14.38,5.05-3.99,11.12-7.1,18.22-9.33,7.1-2.23,15.04-3.35,23.82-3.35,6.66,0,13.43,1.04,20.31,3.13,6.88,2.09,13.24,4.96,19.1,8.62,1.76,1.1,3.55,2.34,5.38,3.73,1.83,1.39,3.51,2.8,5.05,4.23,1.54,1.43,2.8,2.82,3.79,4.17.99,1.35,1.48,2.51,1.48,3.46,0,.88-.22,1.78-.66,2.69-.44.92-.99,1.74-1.65,2.47l-3.29,3.51v-.11c-1.1,1.17-2.23,2.38-3.4,3.62-1.17,1.25-2.34,2.36-3.51,3.35-1.17.99-2.23,1.81-3.18,2.47-.95.66-1.76.99-2.41.99Z" transform="matrix(1, 0, 0, 1, 7.105427357601002e-15, 0)"/>
  <path class="st0" d="M118.12,236.24C52.99,236.24,0,183.25,0,118.12S52.99,0,118.12,0s118.12,52.99,118.12,118.12-52.99,118.12-118.12,118.12ZM118.12,19.68c-54.28,0-98.44,44.16-98.44,98.44s44.16,98.44,98.44,98.44,98.44-44.16,98.44-98.44S172.4,19.68,118.12,19.68Z" transform="matrix(1, 0, 0, 1, 7.105427357601002e-15, 0)"/>
</svg>