<?xml version="1.0" encoding="UTF-8"?>
<svg id="Calque_1" xmlns="http://www.w3.org/2000/svg" version="1.1" viewBox="0 0 45 19.74">
  <!-- Generator: Adobe Illustrator 29.2.1, SVG Export Plug-In . SVG Version: 2.1.0 Build 116)  -->
  <defs>
    <style>
      .st0 {
        fill: #e40524;
      }

      .st1 {
        fill: #fff;
      }

      .st2 {
        fill: #9b9a9a;
      }
    </style>
  </defs>
  <g>
    <path class="st1" d="M11.71,3.82l-3.44,5.48h-1.53l-1.24-5.48h1.59l.78,3.56,2.24-3.56h1.6Z"/>
    <path class="st1" d="M13.32,5.02l-.18.92h2.43l-.23,1.16h-2.44l-.2,1h2.87l-.25,1.2h-4.39l1.1-5.48h4.29l-.24,1.2h-2.76Z"/>
    <path class="st1" d="M22.49,3.82l-1.1,5.48h-1.28l-1.81-3.01-.6,3.01h-1.52l1.1-5.48h1.28l1.82,3,.59-3h1.52Z"/>
    <path class="st1" d="M24.51,5.05h-1.68l.25-1.23h4.91l-.25,1.23h-1.68l-.85,4.25h-1.55l.85-4.25Z"/>
    <path class="st1" d="M29.84,5.02l-.18.92h2.43l-.23,1.16h-2.44l-.2,1h2.87l-.25,1.2h-4.39l1.1-5.48h4.29l-.24,1.2h-2.76Z"/>
  </g>
  <g>
    <path class="st0" d="M7.31,11.65l-.24,1.21h2.42l-.24,1.2h-2.41l-.38,1.88h-1.55l1.1-5.48h4.29l-.24,1.2h-2.74Z"/>
    <path class="st0" d="M11.02,10.45h1.55l-.85,4.25h2.61l-.25,1.23h-4.16l1.1-5.48Z"/>
    <path class="st0" d="M18.71,14.86h-2.33l-.63,1.06h-1.64l3.51-5.48h1.53l1.32,5.48h-1.54l-.22-1.06ZM18.47,13.72l-.37-1.78-1.05,1.78h1.42Z"/>
    <path class="st0" d="M20.67,15.45l.61-1.16c.56.35,1.2.54,1.82.54s.94-.19.94-.49c0-.74-2.66-.33-2.66-2.05,0-1.18,1.01-1.96,2.63-1.96.77,0,1.48.16,1.97.47l-.56,1.15c-.43-.27-.96-.41-1.5-.41-.64,0-.99.23-.99.53,0,.75,2.66.32,2.66,2.01,0,1.17-1.03,1.95-2.64,1.95-.94,0-1.79-.25-2.29-.59Z"/>
    <path class="st0" d="M32.27,10.45l-1.1,5.48h-1.55l.42-2.13h-2.11l-.42,2.13h-1.55l1.1-5.48h1.55l-.41,2.05h2.11l.41-2.05h1.55Z"/>
  </g>
  <path class="st2" d="M40.09,7.5h-2.61l2.42-3.81h-3.04l-2.85,5.71h2.25l-2.25,5.33,6.09-7.23Z"/>
  <ellipse class="st1" cx="34.08" cy="15.65" rx="1.6" ry=".27"/>
</svg>